<svg width="158" height="28" viewBox="0 0 158 28" fill="none" xmlns="http://www.w3.org/2000/svg">
<path d="M3.25113 6.47218C3.52441 6.45592 3.8527 6.46574 4.13178 6.46536L5.79123 6.46611L7.1491 6.46354C7.36283 6.4635 7.57871 6.46807 7.79107 6.46852C8.64504 6.47034 9.40242 6.93385 9.77784 7.70912C10.0013 8.17064 9.98923 8.55509 9.98879 9.06077L9.9891 9.79517L9.98851 10.7202C9.98791 11.0505 9.99662 11.397 9.92864 11.7214C9.67412 12.936 8.71634 13.332 8.00002 14.175C7.76025 14.4606 7.57033 14.785 7.43831 15.1343C7.19268 15.7697 7.22597 16.1398 7.22617 16.8134L7.22986 19.1928C7.22764 19.7659 7.27358 20.385 7.08308 20.9285C6.61089 21.9834 5.66646 21.8767 4.70281 21.8611C3.83054 21.8469 2.91388 21.9911 2.17922 21.4019C1.882 21.1636 1.65946 20.9059 1.49435 20.5612C1.27425 20.1019 1.2937 19.6365 1.29298 19.1419L1.2923 18.0673L1.28966 14.4482L1.29119 10.4627L1.28994 9.22801C1.28962 8.52007 1.25171 7.92374 1.71214 7.32994C2.11912 6.80508 2.59726 6.55804 3.25113 6.47218Z" fill="black"/>
<path d="M10.9324 16.4127C11.3965 16.3923 11.9864 16.409 12.4596 16.4085L13.2701 16.4076C13.8094 16.4075 14.251 16.3743 14.6911 16.7508C15.2292 17.2113 15.2253 17.6909 15.2254 18.3371L15.2251 19.1664L15.2261 20.1142C15.2253 20.3813 15.2363 20.6566 15.1832 20.9185C15.0354 21.6476 14.4929 22.0271 13.7953 22.0997C13.6532 22.1181 13.4217 22.1083 13.2753 22.1079L12.383 22.1046C12.0937 22.103 11.8043 22.1035 11.515 22.106C10.9502 22.1098 10.4964 22.1442 10.0346 21.7566C9.7281 21.4992 9.54368 21.1245 9.52333 20.7242C9.50037 20.2726 9.50868 19.8148 9.50802 19.363L9.50939 18.4106C9.51095 18.1244 9.49808 17.8385 9.55959 17.5582C9.71311 16.8585 10.2548 16.4663 10.9324 16.4127Z" fill="black"/>
<path d="M23.2214 22V5.34955H25.7336V19.8374H33.2783V22H23.2214ZM39.3777 22.252C38.2069 22.252 37.1852 21.9837 36.3126 21.4472C35.44 20.9106 34.7625 20.1599 34.2801 19.1951C33.7977 18.2303 33.5565 17.103 33.5565 15.813C33.5565 14.5176 33.7977 13.3848 34.2801 12.4146C34.7625 11.4444 35.44 10.691 36.3126 10.1544C37.1852 9.61786 38.2069 9.34956 39.3777 9.34956C40.5484 9.34956 41.5701 9.61786 42.4427 10.1544C43.3153 10.691 43.9928 11.4444 44.4752 12.4146C44.9576 13.3848 45.1988 14.5176 45.1988 15.813C45.1988 17.103 44.9576 18.2303 44.4752 19.1951C43.9928 20.1599 43.3153 20.9106 42.4427 21.4472C41.5701 21.9837 40.5484 22.252 39.3777 22.252ZM39.3858 20.2114C40.1446 20.2114 40.7733 20.0108 41.272 19.6098C41.7706 19.2087 42.1392 18.6748 42.3777 18.0081C42.6216 17.3415 42.7435 16.607 42.7435 15.8049C42.7435 15.0081 42.6216 14.2764 42.3777 13.6097C42.1392 12.9376 41.7706 12.3984 41.272 11.9918C40.7733 11.5853 40.1446 11.3821 39.3858 11.3821C38.6216 11.3821 37.9874 11.5853 37.4833 11.9918C36.9847 12.3984 36.6134 12.9376 36.3695 13.6097C36.131 14.2764 36.0118 15.0081 36.0118 15.8049C36.0118 16.607 36.131 17.3415 36.3695 18.0081C36.6134 18.6748 36.9847 19.2087 37.4833 19.6098C37.9874 20.0108 38.6216 20.2114 39.3858 20.2114ZM48.4079 22L44.7331 9.51217H47.2453L49.6925 18.6829H49.8144L52.2697 9.51217H54.7819L57.221 18.6423H57.3429L59.7738 9.51217H62.286L58.6193 22H56.1397L53.6031 12.9837H53.4161L50.8795 22H48.4079ZM81.0132 10.7642H78.4766C78.3791 10.2222 78.1975 9.74523 77.9319 9.3333C77.6663 8.92138 77.3411 8.57178 76.9563 8.28452C76.5715 7.99726 76.1406 7.78045 75.6636 7.63411C75.1921 7.48777 74.6907 7.4146 74.1595 7.4146C73.2002 7.4146 72.3411 7.65579 71.5823 8.13818C70.8289 8.62057 70.2327 9.32788 69.7937 10.2601C69.3601 11.1924 69.1433 12.3306 69.1433 13.6748C69.1433 15.0298 69.3601 16.1734 69.7937 17.1057C70.2327 18.0379 70.8316 18.7425 71.5904 19.2195C72.3492 19.6965 73.2029 19.935 74.1514 19.935C74.6771 19.935 75.1758 19.8645 75.6473 19.7236C76.1243 19.5772 76.5552 19.3631 76.94 19.0813C77.3248 18.7995 77.6501 18.4553 77.9156 18.0488C78.1866 17.6368 78.3736 17.1653 78.4766 16.6341L81.0132 16.6423C80.8777 17.4607 80.6148 18.2141 80.2246 18.9024C79.8398 19.5854 79.3438 20.1761 78.7368 20.6748C78.1351 21.168 77.4468 21.5501 76.6717 21.8211C75.8967 22.0921 75.0511 22.2276 74.1351 22.2276C72.6934 22.2276 71.4088 21.8862 70.2815 21.2033C69.1541 20.5149 68.2652 19.5312 67.6148 18.252C66.9698 16.9729 66.6473 15.4471 66.6473 13.6748C66.6473 11.897 66.9725 10.3712 67.6229 9.09753C68.2733 7.81839 69.1622 6.83736 70.2896 6.15443C71.417 5.46609 72.6988 5.12191 74.1351 5.12191C75.0186 5.12191 75.8425 5.24928 76.6067 5.50403C77.3763 5.75335 78.0674 6.12191 78.6799 6.60972C79.2923 7.09211 79.7991 7.68289 80.2002 8.38208C80.6013 9.07585 80.8723 9.86989 81.0132 10.7642ZM84.4235 14.5853V22H81.9926V5.34955H84.391V11.5447H84.5455C84.8382 10.8726 85.2853 10.3387 85.887 9.94306C86.4886 9.5474 87.2745 9.34956 88.2447 9.34956C89.1011 9.34956 89.849 9.52572 90.4886 9.87802C91.1336 10.2303 91.6322 10.7561 91.9845 11.4553C92.3423 12.149 92.5211 13.0162 92.5211 14.0569V22H90.0902V14.3496C90.0902 13.4336 89.8544 12.7236 89.3829 12.2195C88.9114 11.71 88.2555 11.4553 87.4154 11.4553C86.8409 11.4553 86.326 11.5772 85.8707 11.8211C85.4208 12.065 85.0658 12.4227 84.8057 12.8943C84.5509 13.3604 84.4235 13.9241 84.4235 14.5853ZM99.3156 22.252C98.0853 22.252 97.0256 21.9892 96.1367 21.4634C95.2533 20.9322 94.5703 20.187 94.088 19.2276C93.611 18.2629 93.3725 17.1328 93.3725 15.8374C93.3725 14.5582 93.611 13.4309 94.088 12.4553C94.5703 11.4797 95.2424 10.7181 96.1042 10.1707C96.9714 9.62328 97.985 9.34956 99.1449 9.34956C99.8495 9.34956 100.532 9.4661 101.194 9.69916C101.855 9.93222 102.448 10.2981 102.974 10.7967C103.5 11.2954 103.915 11.9431 104.218 12.7398C104.522 13.5311 104.673 14.4932 104.673 15.626V16.4878H94.7465V14.6666H102.291C102.291 14.0271 102.161 13.4607 101.901 12.9675C101.641 12.4688 101.275 12.0759 100.803 11.7886C100.337 11.5013 99.7899 11.3577 99.1611 11.3577C98.4782 11.3577 97.882 11.5257 97.3725 11.8618C96.8684 12.1924 96.4782 12.626 96.2018 13.1626C95.9308 13.6937 95.7953 14.271 95.7953 14.8943V16.3171C95.7953 17.1518 95.9416 17.8618 96.2343 18.4471C96.5324 19.0325 96.947 19.4797 97.4782 19.7886C98.0094 20.0921 98.63 20.2439 99.34 20.2439C99.8007 20.2439 100.221 20.1789 100.6 20.0488C100.98 19.9133 101.307 19.7127 101.584 19.4471C101.86 19.1816 102.072 18.8537 102.218 18.4634L104.519 18.878C104.335 19.5555 104.004 20.149 103.527 20.6585C103.055 21.1626 102.462 21.5556 101.747 21.8374C101.036 22.1138 100.226 22.252 99.3156 22.252ZM110.799 22.252C109.59 22.252 108.55 21.9783 107.677 21.4309C106.81 20.878 106.143 20.1165 105.677 19.1463C105.211 18.1761 104.978 17.065 104.978 15.813C104.978 14.5447 105.216 13.4255 105.693 12.4553C106.17 11.4797 106.842 10.7181 107.71 10.1707C108.577 9.62328 109.599 9.34956 110.775 9.34956C111.723 9.34956 112.569 9.52572 113.311 9.87802C114.054 10.2249 114.653 10.7127 115.108 11.3414C115.569 11.9702 115.842 12.7046 115.929 13.5447H113.563C113.433 12.9593 113.135 12.4553 112.669 12.0325C112.208 11.6097 111.59 11.3983 110.815 11.3983C110.138 11.3983 109.544 11.5772 109.035 11.9349C108.531 12.2872 108.138 12.7913 107.856 13.4471C107.574 14.0975 107.433 14.8672 107.433 15.7561C107.433 16.6667 107.571 17.4526 107.848 18.1138C108.124 18.7751 108.515 19.2873 109.019 19.6504C109.528 20.0135 110.127 20.1951 110.815 20.1951C111.276 20.1951 111.693 20.1111 112.067 19.9431C112.447 19.7696 112.764 19.523 113.019 19.2032C113.279 18.8835 113.46 18.4986 113.563 18.0488H115.929C115.842 18.8564 115.58 19.5772 115.141 20.2114C114.702 20.8455 114.113 21.3442 113.376 21.7073C112.645 22.0705 111.786 22.252 110.799 22.252ZM118.933 17.7642L118.917 14.7967H119.34L124.315 9.51217H127.226L121.551 15.5284H121.169L118.933 17.7642ZM116.697 22V5.34955H119.128V22H116.697ZM124.583 22L120.112 16.065L121.787 14.3658L127.567 22H124.583ZM132.356 22.252C131.185 22.252 130.163 21.9837 129.291 21.4472C128.418 20.9106 127.74 20.1599 127.258 19.1951C126.776 18.2303 126.534 17.103 126.534 15.813C126.534 14.5176 126.776 13.3848 127.258 12.4146C127.74 11.4444 128.418 10.691 129.291 10.1544C130.163 9.61786 131.185 9.34956 132.356 9.34956C133.526 9.34956 134.548 9.61786 135.421 10.1544C136.293 10.691 136.971 11.4444 137.453 12.4146C137.936 13.3848 138.177 14.5176 138.177 15.813C138.177 17.103 137.936 18.2303 137.453 19.1951C136.971 20.1599 136.293 20.9106 135.421 21.4472C134.548 21.9837 133.526 22.252 132.356 22.252ZM132.364 20.2114C133.123 20.2114 133.751 20.0108 134.25 19.6098C134.749 19.2087 135.117 18.6748 135.356 18.0081C135.6 17.3415 135.721 16.607 135.721 15.8049C135.721 15.0081 135.6 14.2764 135.356 13.6097C135.117 12.9376 134.749 12.3984 134.25 11.9918C133.751 11.5853 133.123 11.3821 132.364 11.3821C131.599 11.3821 130.965 11.5853 130.461 11.9918C129.963 12.3984 129.591 12.9376 129.347 13.6097C129.109 14.2764 128.99 15.0081 128.99 15.8049C128.99 16.607 129.109 17.3415 129.347 18.0081C129.591 18.6748 129.963 19.2087 130.461 19.6098C130.965 20.0108 131.599 20.2114 132.364 20.2114ZM146.969 16.8211V9.51217H149.408V22H147.018V19.8374H146.888C146.601 20.5041 146.14 21.0596 145.506 21.5041C144.877 21.9431 144.094 22.1626 143.156 22.1626C142.354 22.1626 141.644 21.9864 141.026 21.6341C140.414 21.2764 139.931 20.748 139.579 20.0488C139.232 19.3496 139.059 18.4851 139.059 17.4553V9.51217H141.49V17.1626C141.49 18.0135 141.725 18.691 142.197 19.1951C142.668 19.6992 143.281 19.9512 144.034 19.9512C144.49 19.9512 144.942 19.8374 145.392 19.6098C145.847 19.3821 146.224 19.0379 146.522 18.5772C146.826 18.1165 146.975 17.5312 146.969 16.8211ZM156.672 9.51217V11.4634H149.851V9.51217H156.672ZM151.68 6.52029H154.111V18.3333C154.111 18.8049 154.182 19.1599 154.323 19.3984C154.464 19.6314 154.645 19.7913 154.867 19.878C155.095 19.9593 155.342 20 155.607 20C155.802 20 155.973 19.9864 156.119 19.9593C156.266 19.9322 156.38 19.9106 156.461 19.8943L156.9 21.9024C156.759 21.9566 156.558 22.0108 156.298 22.065C156.038 22.1247 155.713 22.1572 155.323 22.1626C154.683 22.1734 154.087 22.0596 153.534 21.8211C152.981 21.5827 152.534 21.2141 152.193 20.7154C151.851 20.2168 151.68 19.5908 151.68 18.8374V6.52029Z" fill="black"/>
</svg>
